<svg width="18" height="18" xmlns="http://www.w3.org/2000/svg">
  <path d="M8.9997 0C5.346 0 2.3732 2.9728 2.3732 6.6269c0 .953.195 1.8631.5795 2.705 1.6568 3.6255 4.8334 7.4532 5.7677 8.5399a.369.369 0 00.559 0c.9339-1.0865 4.1104-4.9141 5.7678-8.54.3846-.8418.5795-1.7518.5795-2.705C15.6264 2.9729 12.6535 0 8.9997 0zm0 10.0689c-1.898 0-3.4422-1.5443-3.4422-3.4422 0-1.8981 1.5442-3.4424 3.4422-3.4424 1.8979 0 3.4422 1.5443 3.4422 3.4424.0002 1.898-1.5441 3.4422-3.4422 3.4422z" fill="#202020"/>
</svg>
