<svg width="24" height="24" fill="none" xmlns="http://www.w3.org/2000/svg">
  <g clip-path="url(#clip0)">
    <path
      d="M22 5.7988c-.7437.3262-1.5363.5424-2.3625.6475.85-.5076 1.4988-1.305 1.8037-2.2663-.7924.4725-1.6674.8063-2.6.9925-.7525-.8013-1.825-1.2975-2.995-1.2975-2.2699 0-4.0975 1.8425-4.0975 4.1013 0 .325.0275.6374.0951.935-3.4088-.1663-6.425-1.8-8.4513-4.2888-.3538.6138-.5613 1.3163-.5613 2.0725 0 1.42.7313 2.6787 1.8213 3.4075-.6587-.0125-1.305-.2037-1.8525-.505v.045c0 1.9925 1.4213 3.6475 3.285 4.0287-.3338.0913-.6975.135-1.075.135-.2625 0-.5275-.0149-.7763-.07.5313 1.6238 2.0388 2.8176 3.8313 2.8563a8.2382 8.2382 0 01-5.0837 1.7487c-.3363 0-.6588-.0149-.9813-.0562 1.8163 1.1713 3.9688 1.84 6.29 1.84 7.545 0 11.67-6.25 11.67-11.6675 0-.1813-.0062-.3562-.015-.53.8138-.5775 1.4975-1.2988 2.055-2.1288z"
      fill="#F5F5F5"
    />
  </g>
  <defs>
    <clipPath id="clip0">
      <path fill="#fff" transform="translate(2 2)" d="M0 0h20v20H0z" />
    </clipPath>
  </defs>
</svg>
