<svg width="24" height="24" fill="none" xmlns="http://www.w3.org/2000/svg">
  <path d="M23.7861 17.3674c-.0645-.1081-.4635-.9751-2.3837-2.7573-2.0101-1.8661-1.7401-1.5631.6811-4.7898 1.4746-1.9651 2.0641-3.1652 1.8796-3.6783-.1755-.489-1.2601-.36-1.2601-.36l-3.6062.021s-.2671-.036-.4666.0825c-.1935.117-.318.387-.318.387s-.5715 1.5211-1.3336 2.8142c-1.6066 2.7287-2.2502 2.8728-2.5127 2.7032-.6105-.3945-.4575-1.5871-.4575-2.4331 0-2.6447.4005-3.7473-.7816-4.0323-.393-.0945-.681-.1575-1.6846-.168-1.2871-.0136-2.3777.0044-2.9942.306-.411.201-.7276.6495-.534.675.2385.0315.7785.1455 1.065.5356.3705.5025.357 1.6336.357 1.6336s.213 3.1127-.4965 3.4997c-.4875.2656-1.155-.276-2.5877-2.7527-.7336-1.2676-1.2886-2.6702-1.2886-2.6702s-.1065-.261-.297-.4005c-.231-.1695-.555-.2235-.555-.2235l-3.4293.021s-.5145.015-.7036.2385c-.168.1995-.0135.6106-.0135.6106s2.6852 6.2809 5.7245 9.4477c2.7887 2.9027 5.9539 2.7122 5.9539 2.7122h1.4341s.4335-.048.6541-.2866c.204-.219.1965-.63.1965-.63s-.0285-1.9247.8655-2.2082c.8806-.279 2.0117 1.8602 3.2103 2.6837.906.6226 1.5946.4861 1.5946.4861l3.2057-.045s1.6772-.1035.8821-1.4221z" fill="#F5F5F5"/>
</svg>
